<svg xmlns="http://www.w3.org/2000/svg" xmlns:xlink="http://www.w3.org/1999/xlink" width="1920" zoomAndPan="magnify" viewBox="0 0 1440 540.000001" height="720" preserveAspectRatio="xMidYMid meet" version="1.0"><defs><clipPath id="55df821a3f"><path d="M 203.089844 38.332031 L 564 38.332031 L 564 392.386719 L 203.089844 392.386719 Z M 203.089844 38.332031 " clip-rule="nonzero"/></clipPath><clipPath id="24d0a15324"><path d="M 275.382812 142.289062 L 662.320312 142.289062 L 662.320312 497.5625 L 275.382812 497.5625 Z M 275.382812 142.289062 " clip-rule="nonzero"/></clipPath><clipPath id="feb09327ac"><path d="M 203.089844 122.164062 L 481 122.164062 L 481 392.386719 L 203.089844 392.386719 Z M 203.089844 122.164062 " clip-rule="nonzero"/></clipPath></defs><g clip-path="url(#55df821a3f)"><path fill="#ff5757" d="M 563.9375 38.386719 L 563.9375 123.382812 C 549.5625 107.183594 531.195312 94.402344 509.0625 84.933594 C 486.929688 75.578125 462.402344 70.902344 435.820312 70.902344 C 409.46875 70.902344 386.191406 75.351562 366 84.136719 C 345.808594 93.035156 330.066406 105.8125 318.65625 122.808594 C 307.25 139.8125 301.65625 160 301.65625 183.386719 C 301.65625 202.894531 304.851562 218.984375 311.355469 231.757812 C 317.855469 244.539062 326.414062 255.148438 337.023438 263.703125 C 347.632812 272.148438 359.269531 279.222656 371.933594 284.808594 C 384.597656 290.398438 397.261719 295.304688 410.035156 299.640625 C 422.816406 303.972656 434.566406 308.539062 445.175781 313.214844 C 455.785156 317.894531 464.339844 323.484375 470.84375 329.988281 C 477.347656 336.492188 480.539062 344.929688 480.539062 355.425781 C 480.539062 366.953125 475.636719 375.964844 465.710938 382.464844 C 455.785156 388.96875 441.867188 392.164062 423.839844 392.164062 C 403.992188 392.164062 386.648438 388.28125 371.589844 380.527344 C 356.644531 372.769531 342.957031 361.816406 330.75 347.78125 L 245.640625 347.78125 C 222.140625 347.898438 203.089844 328.847656 203.089844 305.34375 L 203.089844 38.386719 Z M 563.9375 38.386719 " fill-opacity="1" fill-rule="nonzero"/></g><g clip-path="url(#24d0a15324)"><path fill="#004aad" d="M 662.050781 220.582031 L 662.050781 497.234375 L 275.644531 497.234375 L 275.644531 402.433594 C 294.355469 423.308594 315.007812 438.9375 337.59375 449.207031 C 360.070312 459.472656 387.105469 464.609375 418.480469 464.609375 C 464.230469 464.609375 500.164062 454.226562 526.058594 433.460938 C 552.070312 412.699219 564.960938 384.175781 564.960938 347.78125 C 564.960938 327.933594 561.769531 311.277344 555.265625 297.699219 C 548.761719 284.125 540.210938 273.058594 529.597656 264.160156 C 518.984375 255.378906 507.351562 248.074219 494.691406 242.253906 C 482.824219 236.777344 470.84375 231.988281 458.753906 227.882812 C 458.066406 227.652344 457.265625 227.425781 456.585938 227.085938 C 443.804688 222.75 432.058594 218.410156 421.445312 214.078125 C 410.835938 209.742188 402.28125 204.605469 395.777344 198.679688 C 389.273438 192.746094 386.082031 184.875 386.082031 175.175781 C 386.082031 164.679688 390.414062 156.691406 399.085938 151.105469 C 407.757812 145.515625 419.507812 142.773438 434.222656 142.773438 C 449.054688 142.773438 462.289062 145.628906 473.921875 151.445312 C 485.675781 157.265625 497.3125 166.050781 508.835938 177.910156 L 619.496094 177.910156 C 642.996094 178.027344 662.050781 197.078125 662.050781 220.582031 Z M 662.050781 220.582031 " fill-opacity="1" fill-rule="nonzero"/></g><g clip-path="url(#feb09327ac)"><path fill="#ff3131" d="M 480.65625 355.425781 C 480.65625 366.953125 475.75 375.964844 465.824219 382.464844 C 455.898438 388.96875 441.980469 392.164062 423.957031 392.164062 C 404.105469 392.164062 386.765625 388.28125 371.703125 380.527344 C 356.761719 372.769531 343.070312 361.816406 330.863281 347.78125 L 245.640625 347.78125 C 222.140625 347.898438 203.089844 328.847656 203.089844 305.34375 L 203.089844 286.519531 L 318.65625 122.925781 C 307.25 139.921875 301.65625 160.117188 301.65625 183.503906 C 301.65625 203.011719 304.851562 219.097656 311.355469 231.875 C 317.855469 244.652344 326.414062 255.261719 337.023438 263.820312 C 347.632812 272.257812 359.269531 279.332031 371.933594 284.925781 C 384.597656 290.515625 397.261719 295.421875 410.035156 299.753906 C 422.816406 304.089844 434.566406 308.652344 445.175781 313.332031 C 455.785156 318.007812 464.339844 323.597656 470.84375 330.101562 C 477.460938 336.492188 480.65625 345.046875 480.65625 355.425781 Z M 480.65625 355.425781 " fill-opacity="1" fill-rule="nonzero"/></g><path fill="#122620" d="M 851.472656 180.109375 L 851.472656 241.210938 L 789.144531 241.210938 L 789.144531 422.074219 C 789.144531 429.40625 791.179688 434.699219 795.253906 437.960938 C 799.324219 441.21875 806.457031 442.84375 816.648438 442.84375 C 823.566406 442.84375 835.171875 440.804688 851.472656 436.734375 L 851.472656 499.0625 C 824.582031 502.316406 804.625 503.945312 791.597656 503.945312 C 739.453125 503.945312 713.382812 479.710938 713.382812 431.238281 L 713.382812 241.210938 L 669.394531 241.210938 L 669.394531 180.109375 L 713.382812 180.109375 L 713.382812 75.019531 L 789.144531 75.019531 L 789.144531 180.109375 Z M 851.472656 180.109375 " fill-opacity="1" fill-rule="nonzero"/><path fill="#122620" d="M 1134.347656 299.257812 L 1134.347656 454.460938 C 1134.347656 472.378906 1136.382812 486.839844 1140.457031 497.835938 L 1066.523438 497.835938 L 1061.644531 470.347656 C 1029.460938 492.746094 996.667969 503.945312 963.261719 503.945312 C 936.789062 503.945312 915.710938 496.003906 900.03125 480.125 C 884.347656 464.234375 876.511719 444.066406 876.511719 419.621094 C 876.511719 383.777344 891.476562 355.773438 921.414062 335.609375 C 951.347656 315.449219 997.070312 301.90625 1058.589844 294.976562 L 1058.589844 268.101562 C 1058.589844 256.285156 1054.308594 247.015625 1045.757812 240.296875 C 1037.199219 233.582031 1025.792969 230.222656 1011.53125 230.222656 C 984.238281 230.222656 961.226562 243.253906 942.492188 269.3125 L 893.609375 232.046875 C 904.199219 215.351562 920.183594 201.5 941.566406 190.5 C 962.953125 179.503906 985.464844 174 1009.089844 174 C 1053.894531 174 1085.972656 183.777344 1105.316406 203.332031 C 1124.667969 222.886719 1134.347656 254.863281 1134.347656 299.257812 Z M 988.921875 447.738281 C 998.296875 447.738281 1009.394531 444.585938 1022.222656 438.277344 C 1035.054688 431.957031 1047.179688 423.910156 1058.589844 414.125 L 1058.589844 345.703125 C 1019.070312 352.222656 991.472656 360.570312 975.792969 370.75 C 960.109375 380.933594 952.269531 394.167969 952.269531 410.457031 C 952.269531 422.277344 955.628906 431.445312 962.347656 437.960938 C 969.074219 444.480469 977.933594 447.738281 988.921875 447.738281 Z M 988.921875 447.738281 " fill-opacity="1" fill-rule="nonzero"/><path fill="#122620" d="M 1351.234375 253.429688 C 1340.640625 253.429688 1329.945312 256.792969 1319.148438 263.519531 C 1308.355469 270.238281 1299.296875 277.980469 1291.957031 286.742188 C 1284.628906 295.496094 1280.96875 301.910156 1280.96875 305.980469 L 1280.96875 497.835938 L 1205.195312 497.835938 L 1205.195312 180.109375 L 1274.859375 180.109375 L 1274.859375 234.488281 L 1276.074219 234.488281 C 1285.855469 214.539062 1297.871094 199.570312 1312.125 189.585938 C 1326.378906 179.609375 1344.097656 174.410156 1365.277344 174 L 1365.277344 254.042969 C 1364.46875 254.042969 1363.144531 253.945312 1361.308594 253.742188 C 1359.472656 253.53125 1356.113281 253.429688 1351.234375 253.429688 Z M 1351.234375 253.429688 " fill-opacity="1" fill-rule="nonzero"/><path fill="#122620" d="M 103.289062 468.367188 C 103.289062 466.445312 103.464844 464.339844 103.8125 462.066406 C 104.164062 459.78125 104.824219 457.617188 105.789062 455.582031 C 106.75 453.546875 108.167969 451.875 110.042969 450.566406 C 111.921875 449.25 114.363281 448.589844 117.363281 448.589844 C 119.082031 448.589844 120.851562 449.003906 122.679688 449.832031 C 124.5 450.664062 125.835938 451.832031 126.691406 453.335938 C 127.820312 450.542969 129.441406 448.460938 131.558594 447.09375 C 133.675781 445.726562 136.152344 445.042969 139 445.042969 C 142.113281 445.042969 144.679688 445.679688 146.695312 446.941406 C 148.699219 448.199219 150.285156 449.878906 151.441406 451.972656 C 152.589844 454.0625 153.394531 456.375 153.851562 458.921875 C 154.300781 461.464844 154.523438 464.050781 154.523438 466.675781 L 154.523438 486.304688 C 154.523438 487.59375 154.113281 488.707031 153.28125 489.644531 C 152.445312 490.582031 151.4375 491.050781 150.257812 491.050781 L 107.558594 491.050781 C 106.320312 491.050781 105.304688 490.582031 104.503906 489.644531 C 103.695312 488.707031 103.289062 487.59375 103.289062 486.304688 Z M 111.253906 468.367188 L 111.253906 481.722656 L 123.726562 481.722656 L 123.726562 468.128906 C 123.726562 465.394531 123.234375 462.992188 122.246094 460.925781 C 121.25 458.859375 119.621094 457.828125 117.363281 457.828125 C 115.597656 457.828125 114.289062 458.433594 113.425781 459.640625 C 112.570312 460.847656 111.996094 462.269531 111.703125 463.90625 C 111.40625 465.546875 111.253906 467.03125 111.253906 468.367188 Z M 131.675781 464.355469 L 131.675781 481.722656 L 146.558594 481.722656 L 146.558594 466.675781 C 146.558594 464.753906 146.375 462.851562 146.007812 460.972656 C 145.628906 459.097656 144.890625 457.554688 143.789062 456.34375 C 142.691406 455.140625 141.09375 454.535156 139 454.535156 C 136.535156 454.535156 134.699219 455.488281 133.488281 457.394531 C 132.285156 459.300781 131.675781 461.625 131.675781 464.355469 Z M 131.675781 464.355469 " fill-opacity="1" fill-rule="nonzero"/><path fill="#122620" d="M 146.484375 395.820312 C 146.484375 394.433594 146.929688 393.347656 147.816406 392.570312 C 148.695312 391.792969 149.644531 391.402344 150.664062 391.402344 C 151.632812 391.402344 152.519531 391.769531 153.328125 392.496094 C 154.128906 393.214844 154.523438 394.324219 154.523438 395.820312 L 154.523438 427.753906 C 154.523438 429.363281 154.058594 430.652344 153.117188 431.617188 C 152.183594 432.578125 151.042969 433.054688 149.703125 433.054688 L 108.035156 433.054688 C 106.75 433.054688 105.636719 432.578125 104.699219 431.617188 C 103.761719 430.652344 103.289062 429.363281 103.289062 427.753906 L 103.289062 395.820312 C 103.289062 394.375 103.679688 393.300781 104.457031 392.601562 C 105.238281 391.90625 106.136719 391.550781 107.152344 391.550781 C 108.121094 391.550781 109.035156 391.917969 109.894531 392.644531 C 110.742188 393.375 111.164062 394.433594 111.164062 395.820312 L 111.164062 423.894531 L 125.253906 423.894531 L 125.253906 397.273438 C 125.253906 395.875 125.667969 394.832031 126.496094 394.144531 C 127.328125 393.445312 128.25 393.09375 129.265625 393.09375 C 130.238281 393.09375 131.125 393.445312 131.933594 394.144531 C 132.734375 394.832031 133.128906 395.875 133.128906 397.273438 L 133.128906 423.894531 L 146.484375 423.894531 Z M 146.484375 395.820312 " fill-opacity="1" fill-rule="nonzero"/><path fill="#122620" d="M 146.648438 337.101562 C 147.929688 335.875 149.171875 335.292969 150.378906 335.351562 C 151.585938 335.402344 152.578125 335.855469 153.355469 336.714844 C 154.136719 337.5625 154.53125 338.566406 154.554688 339.722656 C 154.585938 340.871094 154.070312 341.960938 152.996094 342.988281 L 137.636719 357.375 L 137.636719 369.519531 L 150.347656 369.519531 C 151.6875 369.519531 152.722656 370.019531 153.445312 371.015625 C 154.164062 372.003906 154.523438 373.0625 154.523438 374.191406 C 154.523438 375.367188 154.175781 376.441406 153.476562 377.410156 C 152.78125 378.367188 151.761719 378.847656 150.421875 378.847656 L 107.46875 378.847656 C 106.238281 378.847656 105.238281 378.40625 104.457031 377.527344 C 103.679688 376.640625 103.289062 375.53125 103.289062 374.191406 L 103.289062 356.253906 C 103.289062 351.425781 104.070312 347.402344 105.625 344.183594 C 107.183594 340.972656 109.273438 338.5625 111.898438 336.953125 C 114.527344 335.335938 117.445312 334.527344 120.65625 334.527344 C 124.414062 334.527344 127.695312 335.539062 130.507812 337.550781 C 133.324219 339.558594 135.328125 342.628906 136.511719 346.761719 Z M 129.835938 369.519531 L 129.835938 356.179688 C 129.835938 351.886719 128.9375 348.746094 127.140625 346.761719 C 125.34375 344.777344 123.214844 343.835938 120.746094 343.945312 C 118.0625 344 115.835938 345.09375 114.070312 347.238281 C 112.304688 349.386719 111.421875 352.367188 111.421875 356.179688 L 111.421875 369.519531 Z M 129.835938 369.519531 " fill-opacity="1" fill-rule="nonzero"/><path fill="#122620" d="M 102.480469 301.554688 C 102.480469 300.695312 102.65625 299.890625 103.003906 299.144531 C 103.359375 298.394531 103.933594 297.832031 104.742188 297.449219 L 149.375 274.691406 C 150.554688 273.996094 151.585938 273.808594 152.472656 274.140625 C 153.363281 274.460938 154.0625 275.074219 154.570312 275.980469 C 155.078125 276.890625 155.332031 277.851562 155.332031 278.871094 C 155.332031 279.628906 155.128906 280.398438 154.71875 281.175781 C 154.324219 281.949219 153.746094 282.546875 152.996094 282.972656 L 141.8125 288.601562 L 141.8125 314.503906 L 152.996094 320.132812 C 153.859375 320.515625 154.460938 321.09375 154.808594 321.871094 C 155.15625 322.648438 155.332031 323.414062 155.332031 324.160156 C 155.332031 325.070312 155.078125 325.96875 154.570312 326.855469 C 154.0625 327.734375 153.363281 328.371094 152.472656 328.773438 C 151.585938 329.179688 150.632812 329.148438 149.613281 328.667969 L 104.742188 305.746094 C 103.824219 305.320312 103.222656 304.769531 102.929688 304.097656 C 102.632812 303.421875 102.480469 302.570312 102.480469 301.554688 Z M 116.078125 301.554688 L 134.011719 310.566406 L 134.011719 292.554688 Z M 116.078125 301.554688 " fill-opacity="1" fill-rule="nonzero"/><path fill="#122620" d="M 103.289062 227.316406 C 103.289062 225.773438 103.71875 224.59375 104.578125 223.785156 C 105.4375 222.976562 106.402344 222.570312 107.46875 222.570312 C 108.484375 222.570312 109.425781 222.976562 110.28125 223.785156 C 111.144531 224.59375 111.570312 225.773438 111.570312 227.316406 L 111.570312 242.273438 L 150.257812 242.199219 C 151.707031 242.199219 152.78125 242.722656 153.476562 243.773438 C 154.175781 244.820312 154.523438 245.878906 154.523438 246.945312 C 154.523438 248.078125 154.175781 249.140625 153.476562 250.136719 C 152.78125 251.125 151.707031 251.617188 150.257812 251.617188 L 111.570312 251.617188 L 111.570312 266.484375 C 111.570312 268.042969 111.144531 269.179688 110.28125 269.898438 C 109.425781 270.625 108.484375 270.992188 107.46875 270.992188 C 106.402344 270.992188 105.4375 270.625 104.578125 269.898438 C 103.71875 269.179688 103.289062 268.042969 103.289062 266.484375 Z M 103.289062 227.316406 " fill-opacity="1" fill-rule="nonzero"/><path fill="#122620" d="M 107.558594 175.199219 C 106.113281 175.199219 105.039062 174.703125 104.339844 173.714844 C 103.640625 172.726562 103.289062 171.640625 103.289062 170.453125 C 103.289062 169.222656 103.640625 168.140625 104.339844 167.203125 C 105.039062 166.265625 106.082031 165.796875 107.46875 165.796875 L 131.917969 165.796875 C 136.589844 165.796875 140.683594 166.804688 144.195312 168.820312 C 147.710938 170.824219 150.445312 173.640625 152.398438 177.265625 C 154.355469 180.878906 155.332031 185.125 155.332031 190.003906 C 155.332031 194.828125 154.355469 199.0625 152.398438 202.714844 C 150.445312 206.363281 147.710938 209.191406 144.195312 211.207031 C 140.683594 213.210938 136.589844 214.214844 131.917969 214.214844 L 107.316406 214.214844 C 105.96875 214.214844 104.964844 213.734375 104.292969 212.761719 C 103.625 211.796875 103.289062 210.722656 103.289062 209.542969 C 103.289062 208.316406 103.625 207.207031 104.292969 206.21875 C 104.964844 205.222656 105.996094 204.722656 107.390625 204.722656 L 131.917969 204.722656 C 136.371094 204.722656 139.980469 203.386719 142.742188 200.710938 C 145.507812 198.027344 146.890625 194.480469 146.890625 190.078125 C 146.890625 185.628906 145.507812 182.035156 142.742188 179.300781 C 139.980469 176.566406 136.371094 175.199219 131.917969 175.199219 Z M 107.558594 175.199219 " fill-opacity="1" fill-rule="nonzero"/><path fill="#122620" d="M 107.226562 116.171875 C 105.941406 116.171875 104.964844 115.648438 104.292969 114.601562 C 103.625 113.550781 103.289062 112.441406 103.289062 111.261719 C 103.289062 110.027344 103.601562 108.9375 104.21875 107.996094 C 104.839844 107.0625 105.84375 106.589844 107.226562 106.589844 L 149.703125 106.589844 C 151.3125 106.589844 152.519531 107.15625 153.328125 108.28125 C 154.128906 109.414062 154.523438 110.644531 154.523438 111.980469 C 154.523438 112.902344 154.3125 113.804688 153.882812 114.691406 C 153.453125 115.570312 152.890625 116.277344 152.191406 116.816406 L 120.507812 141.429688 L 125 141.101562 L 150.257812 141.101562 C 151.765625 141.101562 152.855469 141.601562 153.523438 142.597656 C 154.191406 143.585938 154.523438 144.671875 154.523438 145.847656 C 154.523438 147.085938 154.191406 148.199219 153.523438 149.1875 C 152.855469 150.175781 151.765625 150.667969 150.257812 150.667969 L 108.199219 150.667969 C 106.59375 150.667969 105.378906 150.175781 104.546875 149.1875 C 103.710938 148.199219 103.289062 147.058594 103.289062 145.773438 C 103.289062 144.753906 103.496094 143.882812 103.902344 143.152344 C 104.304688 142.425781 104.902344 141.742188 105.699219 141.101562 L 138.519531 115.84375 L 133.128906 116.171875 Z M 107.226562 116.171875 " fill-opacity="1" fill-rule="nonzero"/><path fill="#122620" d="M 142.144531 47.164062 C 142.675781 47.164062 143.234375 47.246094 143.835938 47.40625 C 144.425781 47.566406 144.984375 47.882812 145.511719 48.363281 C 147.390625 49.972656 149.082031 51.925781 150.585938 54.230469 C 152.085938 56.539062 153.253906 58.976562 154.089844 61.554688 C 154.917969 64.128906 155.332031 66.679688 155.332031 69.203125 C 155.332031 74.503906 154.207031 79.101562 151.949219 82.992188 C 149.695312 86.878906 146.546875 89.882812 142.503906 92.007812 C 138.453125 94.125 133.769531 95.128906 128.457031 95.015625 C 123.257812 95.015625 118.71875 93.933594 114.832031 91.765625 C 110.941406 89.59375 107.914062 86.550781 105.746094 82.632812 C 103.570312 78.710938 102.480469 74.152344 102.480469 68.949219 C 102.480469 65.417969 103.125 61.925781 104.414062 58.46875 C 105.699219 55.007812 107.609375 52.089844 110.132812 49.726562 C 111.3125 48.609375 112.492188 48.105469 113.664062 48.214844 C 114.84375 48.3125 115.800781 48.808594 116.527344 49.695312 C 117.246094 50.574219 117.582031 51.648438 117.527344 52.914062 C 117.480469 54.171875 116.835938 55.390625 115.597656 56.566406 C 113.769531 58.285156 112.460938 60.230469 111.660156 62.40625 C 110.851562 64.574219 110.445312 66.757812 110.445312 68.949219 C 110.445312 72.273438 111.210938 75.214844 112.738281 77.769531 C 114.265625 80.3125 116.398438 82.285156 119.128906 83.683594 C 121.867188 85.070312 125.058594 85.761719 128.714844 85.761719 C 132.304688 85.714844 135.496094 84.992188 138.28125 83.59375 C 141.066406 82.195312 143.25 80.253906 144.839844 77.769531 C 146.417969 75.277344 147.203125 72.390625 147.203125 69.113281 C 147.203125 66.761719 146.6875 64.414062 145.648438 62.078125 C 144.597656 59.742188 143.160156 57.804688 141.335938 56.253906 L 133.128906 56.253906 L 133.128906 67.992188 C 133.128906 69.488281 132.734375 70.605469 131.933594 71.332031 C 131.125 72.050781 130.238281 72.410156 129.265625 72.410156 C 128.199219 72.410156 127.253906 72.050781 126.421875 71.332031 C 125.582031 70.605469 125.164062 69.488281 125.164062 67.992188 L 125.164062 51.984375 C 125.164062 50.109375 125.570312 48.839844 126.378906 48.167969 C 127.179688 47.5 128.21875 47.164062 129.507812 47.164062 Z M 142.144531 47.164062 " fill-opacity="1" fill-rule="nonzero"/></svg>