<svg xmlns="http://www.w3.org/2000/svg" xmlns:xlink="http://www.w3.org/1999/xlink" width="2000" zoomAndPan="magnify" viewBox="0 0 1500 1499.999933" height="2000" preserveAspectRatio="xMidYMid meet" version="1.0"><defs><g/><clipPath id="696cf9f170"><path d="M 210.554688 387.511719 L 588 387.511719 L 588 757 L 210.554688 757 Z M 210.554688 387.511719 " clip-rule="nonzero"/></clipPath><clipPath id="a5eea91832"><path d="M 286 496 L 689.804688 496 L 689.804688 866.761719 L 286 866.761719 Z M 286 496 " clip-rule="nonzero"/></clipPath><clipPath id="c4089ab071"><path d="M 210.554688 475 L 501 475 L 501 757 L 210.554688 757 Z M 210.554688 475 " clip-rule="nonzero"/></clipPath><clipPath id="dfecba896c"><rect x="0" width="745" y="0" height="637"/></clipPath><clipPath id="c1c9458757"><rect x="0" width="103" y="0" height="481"/></clipPath></defs><rect x="-150" width="1800" fill="#ffffff" y="-149.999993" height="1799.99992" fill-opacity="1"/><rect x="-150" width="1800" fill="#ffffff" y="-149.999993" height="1799.99992" fill-opacity="1"/><g clip-path="url(#696cf9f170)"><path fill="#ff5757" d="M 587.132812 387.570312 L 587.132812 476.269531 C 572.132812 459.363281 552.964844 446.027344 529.867188 436.144531 C 506.769531 426.382812 481.171875 421.5 453.429688 421.5 C 425.929688 421.5 401.640625 426.144531 380.566406 435.3125 C 359.496094 444.597656 343.066406 457.933594 331.160156 475.671875 C 319.253906 493.414062 313.417969 514.484375 313.417969 538.890625 C 313.417969 559.25 316.753906 576.039062 323.539062 589.371094 C 330.324219 602.707031 339.253906 613.78125 350.328125 622.707031 C 361.398438 631.519531 373.542969 638.902344 386.757812 644.734375 C 399.976562 650.566406 413.191406 655.6875 426.523438 660.210938 C 439.859375 664.734375 452.121094 669.5 463.195312 674.378906 C 474.265625 679.261719 483.195312 685.09375 489.980469 691.882812 C 496.769531 698.667969 500.101562 707.476562 500.101562 718.429688 C 500.101562 730.457031 494.984375 739.863281 484.625 746.648438 C 474.265625 753.433594 459.742188 756.769531 440.929688 756.769531 C 420.214844 756.769531 402.117188 752.71875 386.402344 744.625 C 370.804688 736.527344 356.519531 725.097656 343.78125 710.453125 L 254.960938 710.453125 C 230.4375 710.574219 210.554688 690.691406 210.554688 666.164062 L 210.554688 387.570312 Z M 587.132812 387.570312 " fill-opacity="1" fill-rule="nonzero"/></g><g clip-path="url(#a5eea91832)"><path fill="#004aad" d="M 689.523438 577.707031 L 689.523438 866.417969 L 286.273438 866.417969 L 286.273438 767.484375 C 305.800781 789.269531 327.351562 805.582031 350.921875 816.296875 C 374.378906 827.011719 402.59375 832.371094 435.335938 832.371094 C 483.078125 832.371094 520.582031 821.535156 547.605469 799.867188 C 574.75 778.199219 588.203125 748.433594 588.203125 710.453125 C 588.203125 689.738281 584.871094 672.355469 578.085938 658.1875 C 571.296875 644.019531 562.371094 632.472656 551.296875 623.183594 C 540.222656 614.019531 528.082031 606.398438 514.867188 600.324219 C 502.484375 594.609375 489.980469 589.609375 477.363281 585.324219 C 476.648438 585.085938 475.8125 584.847656 475.101562 584.492188 C 461.765625 579.96875 449.503906 575.441406 438.429688 570.917969 C 427.359375 566.394531 418.429688 561.035156 411.640625 554.847656 C 404.855469 548.65625 401.523438 540.441406 401.523438 530.320312 C 401.523438 519.367188 406.046875 511.03125 415.09375 505.199219 C 424.144531 499.367188 436.40625 496.507812 451.765625 496.507812 C 467.242188 496.507812 481.054688 499.484375 493.195312 505.554688 C 505.460938 511.628906 517.605469 520.796875 529.628906 533.175781 L 645.113281 533.175781 C 669.640625 533.296875 689.523438 553.179688 689.523438 577.707031 Z M 689.523438 577.707031 " fill-opacity="1" fill-rule="nonzero"/></g><g clip-path="url(#c4089ab071)"><path fill="#ff3131" d="M 500.222656 718.429688 C 500.222656 730.457031 495.101562 739.863281 484.742188 746.648438 C 474.386719 753.433594 459.859375 756.769531 441.050781 756.769531 C 420.332031 756.769531 402.238281 752.71875 386.519531 744.625 C 370.925781 736.527344 356.636719 725.097656 343.898438 710.453125 L 254.960938 710.453125 C 230.4375 710.574219 210.554688 690.691406 210.554688 666.164062 L 210.554688 646.519531 L 331.160156 475.792969 C 319.253906 493.53125 313.417969 514.605469 313.417969 539.011719 C 313.417969 559.371094 316.753906 576.15625 323.539062 589.492188 C 330.324219 602.828125 339.253906 613.898438 350.328125 622.828125 C 361.398438 631.636719 373.542969 639.019531 386.757812 644.855469 C 399.976562 650.6875 413.191406 655.808594 426.523438 660.332031 C 439.859375 664.855469 452.121094 669.617188 463.195312 674.5 C 474.265625 679.378906 483.195312 685.214844 489.980469 692 C 496.886719 698.667969 500.222656 707.597656 500.222656 718.429688 Z M 500.222656 718.429688 " fill-opacity="1" fill-rule="nonzero"/></g><g transform="matrix(1, 0, 0, 1, 689, 408)"><g clip-path="url(#dfecba896c)"><g fill="#122620" fill-opacity="1"><g transform="translate(0.532806, 459.047261)"><g><path d="M 197.671875 -331.578125 L 197.671875 -267.8125 L 132.625 -267.8125 L 132.625 -79.0625 C 132.625 -71.414062 134.75 -65.890625 139 -62.484375 C 143.25 -59.085938 150.691406 -57.390625 161.328125 -57.390625 C 168.546875 -57.390625 180.660156 -59.515625 197.671875 -63.765625 L 197.671875 1.28125 C 169.609375 4.675781 148.78125 6.375 135.1875 6.375 C 80.769531 6.375 53.5625 -18.914062 53.5625 -69.5 L 53.5625 -267.8125 L 7.65625 -267.8125 L 7.65625 -331.578125 L 53.5625 -331.578125 L 53.5625 -441.25 L 132.625 -441.25 L 132.625 -331.578125 Z M 197.671875 -331.578125 "/></g></g></g><g fill="#122620" fill-opacity="1"><g transform="translate(212.849581, 459.047261)"><g><path d="M 280.5625 -207.234375 L 280.5625 -45.265625 C 280.5625 -26.566406 282.6875 -11.476562 286.9375 0 L 209.78125 0 L 204.6875 -28.6875 C 171.101562 -5.3125 136.878906 6.375 102.015625 6.375 C 74.390625 6.375 52.394531 -1.910156 36.03125 -18.484375 C 19.664062 -35.066406 11.484375 -56.113281 11.484375 -81.625 C 11.484375 -119.03125 27.101562 -148.253906 58.34375 -169.296875 C 89.582031 -190.335938 137.300781 -204.472656 201.5 -211.703125 L 201.5 -239.75 C 201.5 -252.082031 197.035156 -261.753906 188.109375 -268.765625 C 179.179688 -275.773438 167.273438 -279.28125 152.390625 -279.28125 C 123.910156 -279.28125 99.894531 -265.679688 80.34375 -238.484375 L 29.328125 -277.375 C 40.378906 -294.800781 57.0625 -309.253906 79.375 -320.734375 C 101.695312 -332.210938 125.1875 -337.953125 149.84375 -337.953125 C 196.601562 -337.953125 230.078125 -327.75 250.265625 -307.34375 C 270.460938 -286.9375 280.5625 -253.566406 280.5625 -207.234375 Z M 128.796875 -52.28125 C 138.578125 -52.28125 150.160156 -55.570312 163.546875 -62.15625 C 176.941406 -68.75 189.59375 -77.148438 201.5 -87.359375 L 201.5 -158.765625 C 160.257812 -151.960938 131.457031 -143.25 115.09375 -132.625 C 98.726562 -122 90.546875 -108.1875 90.546875 -91.1875 C 90.546875 -78.851562 94.050781 -69.285156 101.0625 -62.484375 C 108.082031 -55.679688 117.328125 -52.28125 128.796875 -52.28125 Z M 128.796875 -52.28125 "/></g></g></g><g fill="#122620" fill-opacity="1"><g transform="translate(531.643579, 459.047261)"><g><path d="M 188.109375 -255.0625 C 177.054688 -255.0625 165.894531 -251.550781 154.625 -244.53125 C 143.363281 -237.519531 133.90625 -229.441406 126.25 -220.296875 C 118.601562 -211.160156 114.78125 -204.46875 114.78125 -200.21875 L 114.78125 0 L 35.703125 0 L 35.703125 -331.578125 L 108.40625 -331.578125 L 108.40625 -274.828125 L 109.671875 -274.828125 C 119.878906 -295.648438 132.421875 -311.269531 147.296875 -321.6875 C 162.171875 -332.101562 180.660156 -337.523438 202.765625 -337.953125 L 202.765625 -254.421875 C 201.921875 -254.421875 200.539062 -254.523438 198.625 -254.734375 C 196.707031 -254.953125 193.203125 -255.0625 188.109375 -255.0625 Z M 188.109375 -255.0625 "/></g></g></g></g></g><g transform="matrix(1, 0, 0, 1, 79, 385)"><g clip-path="url(#c1c9458757)"><g fill="#122620" fill-opacity="1"><g transform="translate(80.872939, 479.92027)"><g><path d="M -53.46875 -28.625 C -53.46875 -30.632812 -53.285156 -32.828125 -52.921875 -35.203125 C -52.554688 -37.585938 -51.867188 -39.84375 -50.859375 -41.96875 C -49.859375 -44.09375 -48.378906 -45.835938 -46.421875 -47.203125 C -44.460938 -48.578125 -41.914062 -49.265625 -38.78125 -49.265625 C -36.988281 -49.265625 -35.140625 -48.832031 -33.234375 -47.96875 C -31.335938 -47.101562 -29.941406 -45.882812 -29.046875 -44.3125 C -27.867188 -47.226562 -26.175781 -49.398438 -23.96875 -50.828125 C -21.757812 -52.253906 -19.171875 -52.96875 -16.203125 -52.96875 C -12.953125 -52.96875 -10.273438 -52.304688 -8.171875 -50.984375 C -6.078125 -49.671875 -4.425781 -47.921875 -3.21875 -45.734375 C -2.019531 -43.554688 -1.179688 -41.140625 -0.703125 -38.484375 C -0.234375 -35.828125 0 -33.128906 0 -30.390625 L 0 -9.90625 C 0 -8.5625 -0.429688 -7.398438 -1.296875 -6.421875 C -2.171875 -5.441406 -3.222656 -4.953125 -4.453125 -4.953125 L -49.015625 -4.953125 C -50.304688 -4.953125 -51.367188 -5.441406 -52.203125 -6.421875 C -53.046875 -7.398438 -53.46875 -8.5625 -53.46875 -9.90625 Z M -45.15625 -28.625 L -45.15625 -14.6875 L -32.140625 -14.6875 L -32.140625 -28.875 C -32.140625 -31.726562 -32.65625 -34.234375 -33.6875 -36.390625 C -34.726562 -38.546875 -36.425781 -39.625 -38.78125 -39.625 C -40.625 -39.625 -41.992188 -38.992188 -42.890625 -37.734375 C -43.785156 -36.472656 -44.382812 -34.988281 -44.6875 -33.28125 C -45 -31.570312 -45.15625 -30.019531 -45.15625 -28.625 Z M -23.84375 -32.8125 L -23.84375 -14.6875 L -8.3125 -14.6875 L -8.3125 -30.390625 C -8.3125 -32.398438 -8.503906 -34.382812 -8.890625 -36.34375 C -9.285156 -38.300781 -10.054688 -39.910156 -11.203125 -41.171875 C -12.347656 -42.429688 -14.015625 -43.0625 -16.203125 -43.0625 C -18.773438 -43.0625 -20.691406 -42.066406 -21.953125 -40.078125 C -23.210938 -38.085938 -23.84375 -35.664062 -23.84375 -32.8125 Z M -23.84375 -32.8125 "/></g></g></g><g fill="#122620" fill-opacity="1"><g transform="translate(80.872939, 419.31829)"><g><path d="M -8.390625 -43.734375 C -8.390625 -45.179688 -7.925781 -46.3125 -7 -47.125 C -6.082031 -47.9375 -5.09375 -48.34375 -4.03125 -48.34375 C -3.019531 -48.34375 -2.09375 -47.960938 -1.25 -47.203125 C -0.414062 -46.453125 0 -45.296875 0 -43.734375 L 0 -10.40625 C 0 -8.726562 -0.488281 -7.382812 -1.46875 -6.375 C -2.445312 -5.375 -3.632812 -4.875 -5.03125 -4.875 L -48.515625 -4.875 C -49.859375 -4.875 -51.019531 -5.375 -52 -6.375 C -52.976562 -7.382812 -53.46875 -8.726562 -53.46875 -10.40625 L -53.46875 -43.734375 C -53.46875 -45.242188 -53.0625 -46.363281 -52.25 -47.09375 C -51.4375 -47.820312 -50.5 -48.1875 -49.4375 -48.1875 C -48.425781 -48.1875 -47.472656 -47.804688 -46.578125 -47.046875 C -45.691406 -46.285156 -45.25 -45.179688 -45.25 -43.734375 L -45.25 -14.4375 L -30.546875 -14.4375 L -30.546875 -42.21875 C -30.546875 -43.675781 -30.113281 -44.765625 -29.25 -45.484375 C -28.382812 -46.210938 -27.421875 -46.578125 -26.359375 -46.578125 C -25.347656 -46.578125 -24.421875 -46.210938 -23.578125 -45.484375 C -22.742188 -44.765625 -22.328125 -43.675781 -22.328125 -42.21875 L -22.328125 -14.4375 L -8.390625 -14.4375 Z M -8.390625 -43.734375 "/></g></g></g><g fill="#122620" fill-opacity="1"><g transform="translate(80.872939, 362.745203)"><g><path d="M -8.21875 -48.4375 C -6.882812 -49.71875 -5.585938 -50.328125 -4.328125 -50.265625 C -3.066406 -50.210938 -2.03125 -49.738281 -1.21875 -48.84375 C -0.40625 -47.957031 0.0078125 -46.910156 0.03125 -45.703125 C 0.0625 -44.503906 -0.476562 -43.367188 -1.59375 -42.296875 L -17.625 -27.28125 L -17.625 -14.609375 L -4.359375 -14.609375 C -2.960938 -14.609375 -1.882812 -14.085938 -1.125 -13.046875 C -0.375 -12.015625 0 -10.910156 0 -9.734375 C 0 -8.503906 -0.363281 -7.382812 -1.09375 -6.375 C -1.820312 -5.375 -2.882812 -4.875 -4.28125 -4.875 L -49.109375 -4.875 C -50.390625 -4.875 -51.4375 -5.332031 -52.25 -6.25 C -53.0625 -7.175781 -53.46875 -8.335938 -53.46875 -9.734375 L -53.46875 -28.453125 C -53.46875 -33.492188 -52.65625 -37.691406 -51.03125 -41.046875 C -49.40625 -44.398438 -47.222656 -46.914062 -44.484375 -48.59375 C -41.742188 -50.28125 -38.695312 -51.125 -35.34375 -51.125 C -31.425781 -51.125 -28 -50.070312 -25.0625 -47.96875 C -22.125 -45.875 -20.035156 -42.671875 -18.796875 -38.359375 Z M -25.765625 -14.609375 L -25.765625 -28.53125 C -25.765625 -33.007812 -26.703125 -36.285156 -28.578125 -38.359375 C -30.453125 -40.429688 -32.675781 -41.410156 -35.25 -41.296875 C -38.050781 -41.242188 -40.375 -40.097656 -42.21875 -37.859375 C -44.0625 -35.617188 -44.984375 -32.507812 -44.984375 -28.53125 L -44.984375 -14.609375 Z M -25.765625 -14.609375 "/></g></g></g><g fill="#122620" fill-opacity="1"><g transform="translate(80.872939, 304.66127)"><g><path d="M -54.3125 -27.453125 C -54.3125 -28.347656 -54.128906 -29.1875 -53.765625 -29.96875 C -53.398438 -30.75 -52.796875 -31.335938 -51.953125 -31.734375 L -5.375 -55.484375 C -4.144531 -56.210938 -3.066406 -56.40625 -2.140625 -56.0625 C -1.210938 -55.726562 -0.484375 -55.085938 0.046875 -54.140625 C 0.578125 -53.191406 0.84375 -52.1875 0.84375 -51.125 C 0.84375 -50.332031 0.628906 -49.53125 0.203125 -48.71875 C -0.210938 -47.914062 -0.8125 -47.289062 -1.59375 -46.84375 L -13.265625 -40.96875 L -13.265625 -13.9375 L -1.59375 -8.0625 C -0.695312 -7.664062 -0.0664062 -7.0625 0.296875 -6.25 C 0.660156 -5.4375 0.84375 -4.640625 0.84375 -3.859375 C 0.84375 -2.910156 0.578125 -1.972656 0.046875 -1.046875 C -0.484375 -0.128906 -1.210938 0.535156 -2.140625 0.953125 C -3.066406 1.378906 -4.0625 1.34375 -5.125 0.84375 L -51.953125 -23.078125 C -52.910156 -23.523438 -53.539062 -24.097656 -53.84375 -24.796875 C -54.15625 -25.503906 -54.3125 -26.390625 -54.3125 -27.453125 Z M -40.125 -27.453125 L -21.40625 -18.046875 L -21.40625 -36.84375 Z M -40.125 -27.453125 "/></g></g></g><g fill="#122620" fill-opacity="1"><g transform="translate(80.872939, 243.219935)"><g><path d="M -53.46875 -43.484375 C -53.46875 -45.097656 -53.019531 -46.328125 -52.125 -47.171875 C -51.226562 -48.015625 -50.222656 -48.4375 -49.109375 -48.4375 C -48.046875 -48.4375 -47.066406 -48.015625 -46.171875 -47.171875 C -45.273438 -46.328125 -44.828125 -45.097656 -44.828125 -43.484375 L -44.828125 -27.875 L -4.453125 -27.953125 C -2.941406 -27.953125 -1.820312 -27.40625 -1.09375 -26.3125 C -0.363281 -25.21875 0 -24.113281 0 -23 C 0 -21.820312 -0.363281 -20.710938 -1.09375 -19.671875 C -1.820312 -18.640625 -2.941406 -18.125 -4.453125 -18.125 L -44.828125 -18.125 L -44.828125 -2.609375 C -44.828125 -0.984375 -45.273438 0.203125 -46.171875 0.953125 C -47.066406 1.710938 -48.046875 2.09375 -49.109375 2.09375 C -50.222656 2.09375 -51.226562 1.710938 -52.125 0.953125 C -53.019531 0.203125 -53.46875 -0.984375 -53.46875 -2.609375 Z M -53.46875 -43.484375 "/></g></g></g><g fill="#122620" fill-opacity="1"><g transform="translate(80.872939, 190.843629)"><g><path d="M -49.015625 -45.5 C -50.523438 -45.5 -51.644531 -46.015625 -52.375 -47.046875 C -53.101562 -48.078125 -53.46875 -49.210938 -53.46875 -50.453125 C -53.46875 -51.734375 -53.101562 -52.863281 -52.375 -53.84375 C -51.644531 -54.820312 -50.554688 -55.3125 -49.109375 -55.3125 L -23.59375 -55.3125 C -18.71875 -55.3125 -14.445312 -54.257812 -10.78125 -52.15625 C -7.113281 -50.0625 -4.257812 -47.125 -2.21875 -43.34375 C -0.175781 -39.570312 0.84375 -35.140625 0.84375 -30.046875 C 0.84375 -25.015625 -0.175781 -20.59375 -2.21875 -16.78125 C -4.257812 -12.976562 -7.113281 -10.023438 -10.78125 -7.921875 C -14.445312 -5.828125 -18.71875 -4.78125 -23.59375 -4.78125 L -49.265625 -4.78125 C -50.671875 -4.78125 -51.722656 -5.285156 -52.421875 -6.296875 C -53.117188 -7.304688 -53.46875 -8.425781 -53.46875 -9.65625 C -53.46875 -10.9375 -53.117188 -12.09375 -52.421875 -13.125 C -51.722656 -14.164062 -50.644531 -14.6875 -49.1875 -14.6875 L -23.59375 -14.6875 C -18.945312 -14.6875 -15.179688 -16.082031 -12.296875 -18.875 C -9.410156 -21.675781 -7.96875 -25.375 -7.96875 -29.96875 C -7.96875 -34.613281 -9.410156 -38.363281 -12.296875 -41.21875 C -15.179688 -44.070312 -18.945312 -45.5 -23.59375 -45.5 Z M -49.015625 -45.5 "/></g></g></g><g fill="#122620" fill-opacity="1"><g transform="translate(80.872939, 124.198288)"><g><path d="M -49.359375 -40.453125 C -50.703125 -40.453125 -51.722656 -41 -52.421875 -42.09375 C -53.117188 -43.1875 -53.46875 -44.347656 -53.46875 -45.578125 C -53.46875 -46.867188 -53.144531 -48.003906 -52.5 -48.984375 C -51.851562 -49.960938 -50.804688 -50.453125 -49.359375 -50.453125 L -5.03125 -50.453125 C -3.351562 -50.453125 -2.09375 -49.863281 -1.25 -48.6875 C -0.414062 -47.507812 0 -46.222656 0 -44.828125 C 0 -43.867188 -0.222656 -42.925781 -0.671875 -42 C -1.117188 -41.082031 -1.707031 -40.34375 -2.4375 -39.78125 L -35.5 -14.09375 L -30.8125 -14.4375 L -4.453125 -14.4375 C -2.878906 -14.4375 -1.742188 -13.914062 -1.046875 -12.875 C -0.347656 -11.84375 0 -10.710938 0 -9.484375 C 0 -8.191406 -0.347656 -7.03125 -1.046875 -6 C -1.742188 -4.96875 -2.878906 -4.453125 -4.453125 -4.453125 L -48.34375 -4.453125 C -50.019531 -4.453125 -51.289062 -4.96875 -52.15625 -6 C -53.03125 -7.03125 -53.46875 -8.21875 -53.46875 -9.5625 C -53.46875 -10.625 -53.253906 -11.535156 -52.828125 -12.296875 C -52.410156 -13.054688 -51.785156 -13.769531 -50.953125 -14.4375 L -16.703125 -40.796875 L -22.328125 -40.453125 Z M -49.359375 -40.453125 "/></g></g></g><g fill="#122620" fill-opacity="1"><g transform="translate(80.872939, 63.260575)"><g><path d="M -12.921875 -51.53125 C -12.367188 -51.53125 -11.78125 -51.445312 -11.15625 -51.28125 C -10.539062 -51.113281 -9.957031 -50.78125 -9.40625 -50.28125 C -7.445312 -48.601562 -5.679688 -46.5625 -4.109375 -44.15625 C -2.546875 -41.75 -1.328125 -39.203125 -0.453125 -36.515625 C 0.410156 -33.828125 0.84375 -31.164062 0.84375 -28.53125 C 0.84375 -23 -0.332031 -18.203125 -2.6875 -14.140625 C -5.039062 -10.085938 -8.328125 -6.953125 -12.546875 -4.734375 C -16.773438 -2.523438 -21.660156 -1.476562 -27.203125 -1.59375 C -32.628906 -1.59375 -37.367188 -2.722656 -41.421875 -4.984375 C -45.484375 -7.253906 -48.644531 -10.429688 -50.90625 -14.515625 C -53.175781 -18.609375 -54.3125 -23.367188 -54.3125 -28.796875 C -54.3125 -32.484375 -53.640625 -36.128906 -52.296875 -39.734375 C -50.953125 -43.347656 -48.960938 -46.390625 -46.328125 -48.859375 C -45.097656 -50.023438 -43.867188 -50.550781 -42.640625 -50.4375 C -41.410156 -50.332031 -40.414062 -49.816406 -39.65625 -48.890625 C -38.90625 -47.972656 -38.554688 -46.851562 -38.609375 -45.53125 C -38.660156 -44.21875 -39.332031 -42.945312 -40.625 -41.71875 C -42.53125 -39.925781 -43.898438 -37.894531 -44.734375 -35.625 C -45.578125 -33.363281 -46 -31.085938 -46 -28.796875 C -46 -25.328125 -45.203125 -22.257812 -43.609375 -19.59375 C -42.015625 -16.9375 -39.789062 -14.878906 -36.9375 -13.421875 C -34.082031 -11.972656 -30.75 -11.25 -26.9375 -11.25 C -23.1875 -11.300781 -19.859375 -12.054688 -16.953125 -13.515625 C -14.046875 -14.972656 -11.765625 -17 -10.109375 -19.59375 C -8.460938 -22.195312 -7.640625 -25.207031 -7.640625 -28.625 C -7.640625 -31.082031 -8.179688 -33.53125 -9.265625 -35.96875 C -10.359375 -38.40625 -11.859375 -40.429688 -13.765625 -42.046875 L -22.328125 -42.046875 L -22.328125 -29.796875 C -22.328125 -28.234375 -22.742188 -27.070312 -23.578125 -26.3125 C -24.421875 -25.5625 -25.347656 -25.1875 -26.359375 -25.1875 C -27.472656 -25.1875 -28.460938 -25.5625 -29.328125 -26.3125 C -30.203125 -27.070312 -30.640625 -28.234375 -30.640625 -29.796875 L -30.640625 -46.5 C -30.640625 -48.457031 -30.21875 -49.785156 -29.375 -50.484375 C -28.539062 -51.179688 -27.453125 -51.53125 -26.109375 -51.53125 Z M -12.921875 -51.53125 "/></g></g></g></g></g></svg>